<svg width="35" height="1070" viewBox="0 0 35 1070" fill="none" xmlns="http://www.w3.org/2000/svg">
<path d="M15.293 1069.1C12.0703 1069.1 9.41895 1068.47 7.33887 1067.21C5.28809 1065.95 3.76465 1063.89 2.76855 1061.02C1.77246 1058.14 1.27441 1054.31 1.27441 1049.5V1045.59H10.6348V1047.61C10.6348 1051.25 10.7666 1053.98 11.0303 1055.83C11.3232 1057.65 11.8652 1058.88 12.6562 1059.52C13.4473 1060.14 14.5752 1060.44 16.04 1060.44C17.6514 1060.44 18.7646 1059.95 19.3799 1058.95C20.0244 1057.92 20.4053 1056.36 20.5225 1054.25C20.6396 1052.11 20.6982 1049.37 20.6982 1046.03V1037.07C19.9658 1037.62 18.9697 1038.11 17.71 1038.52C16.4795 1038.9 15.0879 1039.09 13.5352 1039.09C9.93164 1039.09 7.16309 1038.21 5.22949 1036.45C3.2959 1034.69 1.96289 1032.1 1.23047 1028.67C0.498047 1025.21 0.131836 1020.98 0.131836 1015.97V1013.29C0.131836 1009.78 0.307617 1006.58 0.65918 1003.71C1.04004 1000.84 1.74316 998.394 2.76855 996.372C3.82324 994.321 5.34668 992.754 7.33887 991.67C9.33105 990.557 11.9531 990 15.2051 990C18.5449 990 21.2256 990.527 23.2471 991.582C25.2979 992.607 26.8506 994.116 27.9053 996.108C28.9893 998.101 29.707 1000.53 30.0586 1003.4C30.4395 1006.27 30.6299 1009.56 30.6299 1013.25V1045.06C30.6299 1050.78 30.1611 1055.39 29.2236 1058.91C28.3154 1062.42 26.7334 1065 24.4775 1066.64C22.251 1068.28 19.1895 1069.1 15.293 1069.1ZM15.0732 1030.87C16.0986 1030.87 17.0068 1030.74 17.7979 1030.47C18.6182 1030.21 19.2773 1029.93 19.7754 1029.64C20.2734 1029.35 20.5811 1029.13 20.6982 1028.98V1011.05C20.6982 1006.8 20.3613 1003.71 19.6875 1001.78C19.0137 999.814 17.5635 998.833 15.3369 998.833C13.7549 998.833 12.5537 999.258 11.7334 1000.11C10.9424 1000.93 10.4004 1002.23 10.1074 1004.02C9.84375 1005.78 9.71191 1008.08 9.71191 1010.92V1017.11C9.71191 1020.48 9.8291 1023.16 10.0635 1025.16C10.3271 1027.15 10.8398 1028.6 11.6016 1029.51C12.3633 1030.42 13.5205 1030.87 15.0732 1030.87Z" fill="#1D1D1B"/>
<path d="M16.1279 959.102C10.7666 959.102 6.81152 957.534 4.2627 954.399C1.74316 951.235 0.454102 946.313 0.395508 939.634L0.351562 935.371C0.351562 932.646 0.600586 930.024 1.09863 927.505C1.62598 924.956 2.37305 922.715 3.33984 920.781C4.33594 918.818 5.53711 917.368 6.94336 916.431C4.74609 914.849 3.16406 912.578 2.19727 909.619C1.25977 906.631 0.791016 903.159 0.791016 899.204C0.791016 892.495 1.94824 887.617 4.2627 884.57C6.60645 881.523 10.5615 880 16.1279 880C21.7822 880 25.7373 881.509 27.9932 884.526C30.249 887.515 31.377 892.407 31.377 899.204C31.377 903.218 30.9375 906.704 30.0586 909.663C29.1797 912.593 27.6123 914.834 25.3564 916.387C26.7041 917.324 27.832 918.789 28.7402 920.781C29.6484 922.744 30.3369 925 30.8057 927.549C31.2744 930.068 31.5088 932.676 31.5088 935.371V939.37C31.5088 946.138 30.2783 951.118 27.8174 954.312C25.3857 957.505 21.4893 959.102 16.1279 959.102ZM16.1719 950.444C17.7539 950.444 18.9111 950.078 19.6436 949.346C20.376 948.584 20.8301 947.354 21.0059 945.654C21.2109 943.926 21.3135 941.655 21.3135 938.843V934.492C21.3135 929.775 20.874 926.26 19.9951 923.945C19.1455 921.602 17.8711 920.43 16.1719 920.43C14.5312 920.43 13.1836 921.587 12.1289 923.901C11.0742 926.216 10.5469 929.775 10.5469 934.58V939.062C10.5469 943.193 10.8691 946.123 11.5137 947.852C12.1582 949.58 13.7109 950.444 16.1719 950.444ZM16.084 913.486C17.1387 913.486 18.0615 913.12 18.8525 912.388C19.6729 911.655 20.3027 910.308 20.7422 908.345C21.2109 906.382 21.4453 903.555 21.4453 899.863C21.4453 896.318 21.2549 893.711 20.874 892.041C20.4932 890.371 19.9072 889.287 19.1162 888.789C18.3252 888.291 17.3145 888.042 16.084 888.042C14.8828 888.042 13.8867 888.335 13.0957 888.921C12.3047 889.478 11.7188 890.605 11.3379 892.305C10.957 894.004 10.7666 896.567 10.7666 899.995C10.7666 903.657 10.9717 906.47 11.3818 908.433C11.8213 910.366 12.4365 911.699 13.2275 912.432C14.0186 913.135 14.9707 913.486 16.084 913.486Z" fill="#1D1D1B"/>
<path d="M5.36133 848.223C5.88867 841.162 6.75293 834.526 7.9541 828.315C9.18457 822.075 10.5762 816.26 12.1289 810.869C13.7109 805.449 15.249 800.454 16.7432 795.884C18.208 791.079 19.4824 787.256 20.5664 784.414C21.6504 781.543 22.2363 779.932 22.3242 779.58H0.307617V770.879H32.5635V778.262C32.3877 779.756 31.5381 782.422 30.0146 786.26C28.4912 790.068 26.8945 794.829 25.2246 800.542C23.9355 804.761 22.6904 809.39 21.4893 814.429C20.2881 819.468 19.2334 824.829 18.3252 830.513C17.4463 836.167 16.8018 842.07 16.3916 848.223H5.36133Z" fill="#1D1D1B"/>
<path d="M17.1826 739.146C13.8428 739.146 11.1328 738.618 9.05273 737.563C6.97266 736.509 5.36133 734.985 4.21875 732.993C3.10547 730.972 2.34375 728.525 1.93359 725.654C1.52344 722.783 1.31836 719.531 1.31836 715.898V683.687C1.31836 678.003 1.80176 673.433 2.76855 669.976C3.76465 666.489 5.40527 663.955 7.69043 662.373C10.0049 660.791 13.1104 660 17.0068 660C20.3174 660 22.9834 660.645 25.0049 661.934C27.0264 663.193 28.5059 665.259 29.4434 668.13C30.4102 671.001 30.8936 674.854 30.8936 679.688V683.467H21.6211V681.489C21.6211 677.944 21.4893 675.264 21.2256 673.447C20.9912 671.602 20.4932 670.356 19.7314 669.712C18.999 669.067 17.8711 668.745 16.3477 668.745C14.7363 668.745 13.5791 669.229 12.876 670.195C12.1729 671.162 11.7188 672.686 11.5137 674.766C11.3379 676.846 11.25 679.585 11.25 682.983V692.827C12.0703 691.978 13.1689 691.289 14.5459 690.762C15.9521 690.205 17.4756 689.927 19.1162 689.927C22.6611 689.897 25.3711 690.747 27.2461 692.476C29.1504 694.204 30.4541 696.797 31.1572 700.254C31.8896 703.711 32.2559 708.003 32.2559 713.13V716.382C32.2559 721.069 31.8896 725.127 31.1572 728.555C30.4248 731.953 28.9746 734.575 26.8066 736.421C24.668 738.237 21.46 739.146 17.1826 739.146ZM17.0508 730.312C18.6328 730.312 19.8193 729.946 20.6104 729.214C21.4307 728.481 21.9727 727.266 22.2363 725.566C22.5293 723.867 22.6758 721.582 22.6758 718.711V712.295C22.6758 708.896 22.5439 706.187 22.2803 704.165C22.0459 702.114 21.5332 700.635 20.7422 699.727C19.9512 698.818 18.7939 698.364 17.2705 698.364C16.2158 698.364 15.2344 698.555 14.3262 698.936C13.418 699.287 12.6855 699.697 12.1289 700.166C11.6016 700.635 11.3086 701.016 11.25 701.309V718.008C11.25 720.879 11.4111 723.223 11.7334 725.039C12.085 726.855 12.6709 728.188 13.4912 729.038C14.3408 729.888 15.5273 730.312 17.0508 730.312Z" fill="#1D1D1B"/>
<path d="M16.4355 629.102C12.9199 629.102 10.1074 628.442 7.99805 627.124C5.91797 625.806 4.42383 624.004 3.51562 621.719C2.60742 619.404 2.15332 616.782 2.15332 613.853V604.8H11.9092V613.369C11.9092 615.391 12.1875 617.075 12.7441 618.423C13.3301 619.771 14.5605 620.444 16.4355 620.444C18.1055 620.444 19.2773 619.829 19.9512 618.599C20.6543 617.339 21.0059 615.435 21.0059 612.886V591.177C21.0059 588.394 20.7129 586.24 20.127 584.717C19.541 583.164 18.3398 582.388 16.5234 582.388C15.0586 582.388 13.8867 583.032 13.0078 584.321C12.1582 585.61 11.7334 587.603 11.7334 590.298L2.8125 589.507V550.879H28.916V560.063H12.2168V577.114C12.7148 576.089 13.6377 575.283 14.9854 574.697C16.3623 574.111 17.8271 573.818 19.3799 573.818C22.1338 573.818 24.3457 574.609 26.0156 576.191C27.7148 577.744 28.9453 580.352 29.707 584.014C30.4688 587.676 30.8496 592.627 30.8496 598.867V600.537C30.8496 605.283 30.7178 609.458 30.4541 613.062C30.1904 616.636 29.6045 619.609 28.6963 621.982C27.7881 624.355 26.3525 626.143 24.3896 627.344C22.4561 628.516 19.8047 629.102 16.4355 629.102Z" fill="#1D1D1B"/>
<path d="M18.5889 518.223V504.028H0V496.689L17.0947 440.879H27.8174V495.854H34.0137V504.028H27.8174V518.223H18.5889ZM8.12988 495.854H18.5889V456.479L8.12988 495.854Z" fill="#1D1D1B"/>
<path d="M15.7764 409.102C10.1807 409.102 6.29883 407.358 4.13086 403.872C1.96289 400.356 0.878906 394.951 0.878906 387.656V383.306H10.459V387.612C10.459 390.718 10.5762 393.208 10.8105 395.083C11.0742 396.958 11.6016 398.32 12.3926 399.17C13.2129 399.99 14.4287 400.4 16.04 400.4C17.6807 400.4 18.8965 399.917 19.6875 398.95C20.5078 397.983 21.0498 396.475 21.3135 394.424C21.6064 392.373 21.7529 389.736 21.7529 386.514C21.7529 382.822 21.5479 379.878 21.1377 377.681C20.7275 375.483 19.9805 373.901 18.8965 372.935C17.8418 371.968 16.3184 371.484 14.3262 371.484H11.6895V363.53H14.2383C16.1719 363.53 17.6807 363.149 18.7646 362.388C19.8486 361.626 20.6104 360.278 21.0498 358.345C21.4893 356.411 21.709 353.73 21.709 350.303C21.709 347.109 21.4893 344.692 21.0498 343.052C20.6396 341.382 20.0098 340.254 19.1602 339.668C18.3398 339.053 17.3438 338.745 16.1719 338.745C14.9121 338.745 13.8867 339.111 13.0957 339.844C12.3047 340.547 11.7188 341.748 11.3379 343.447C10.9863 345.146 10.8105 347.476 10.8105 350.435V352.456H1.01074V350.039C1.01074 343.242 2.10938 338.218 4.30664 334.966C6.5332 331.685 10.4443 330.044 16.04 330.044C21.5771 330.044 25.5615 331.743 27.9932 335.142C30.4541 338.511 31.6846 343.564 31.6846 350.303C31.6846 354.492 31.0693 358.11 29.8389 361.157C28.6084 364.175 26.6016 366.196 23.8184 367.222C25.7812 368.13 27.3486 369.521 28.5205 371.396C29.6924 373.271 30.542 375.498 31.0693 378.076C31.5967 380.654 31.8604 383.481 31.8604 386.558C31.8604 394.028 30.6445 399.653 28.2129 403.433C25.7812 407.212 21.6357 409.102 15.7764 409.102Z" fill="#1D1D1B"/>
<path d="M3.64746 298.223V293.784C3.64746 290.913 3.91113 288.203 4.43848 285.654C4.96582 283.105 5.83008 280.483 7.03125 277.788C8.23242 275.093 9.78516 272.075 11.6895 268.735L19.0723 256.079C19.6582 255.024 20.1562 253.94 20.5664 252.827C21.0059 251.685 21.3574 250.483 21.6211 249.224C21.8848 247.964 22.0752 246.631 22.1924 245.225C22.3096 243.818 22.3682 242.339 22.3682 240.786C22.3682 237.417 22.207 234.868 21.8848 233.14C21.5918 231.411 21.1084 230.254 20.4346 229.668C19.79 229.053 18.9258 228.745 17.8418 228.745C16.7578 228.745 15.835 229.038 15.0732 229.624C14.3408 230.21 13.7842 231.411 13.4033 233.228C13.0518 235.044 12.876 237.798 12.876 241.489V251.421H2.98828V246.279C2.98828 240.713 3.31055 235.981 3.95508 232.085C4.62891 228.159 6.0498 225.171 8.21777 223.12C10.415 221.069 13.7988 220.044 18.3691 220.044C21.8848 220.044 24.6387 220.981 26.6309 222.856C28.623 224.731 30.0146 227.28 30.8057 230.503C31.626 233.696 32.0361 237.329 32.0361 241.401C32.0361 243.892 31.8457 246.221 31.4648 248.389C31.1133 250.527 30.5859 252.578 29.8828 254.541C29.1797 256.504 28.2861 258.438 27.2021 260.342L20.127 272.998C18.7793 275.43 17.6514 277.554 16.7432 279.37C15.8643 281.157 15.1758 282.9 14.6777 284.6C14.1797 286.299 13.8135 288.232 13.5791 290.4H30.7617V298.223H3.64746Z" fill="#1D1D1B"/>
<path d="M13.5791 188.223V124.062C12.876 124.883 11.8652 125.63 10.5469 126.304C9.25781 126.948 7.89551 127.461 6.45996 127.842C5.05371 128.193 3.80859 128.369 2.72461 128.369V120.503C4.27734 120.269 5.93262 119.771 7.69043 119.009C9.47754 118.218 11.1328 117.148 12.6562 115.801C14.209 114.453 15.3955 112.812 16.2158 110.879H23.7744V188.223H13.5791Z" fill="#1D1D1B"/>
<path d="M15.9521 79.1455C11.7334 79.1455 8.52539 78.2812 6.32812 76.5527C4.16016 74.8242 2.68066 72.334 1.88965 69.082C1.12793 65.8301 0.74707 61.9189 0.74707 57.3486V20.3906C0.74707 15.9375 1.15723 12.2021 1.97754 9.18457C2.79785 6.16699 4.29199 3.88184 6.45996 2.3291C8.65723 0.776367 11.8213 0 15.9521 0C20.083 0 23.2178 0.776367 25.3564 2.3291C27.4951 3.88184 28.9453 6.16699 29.707 9.18457C30.4688 12.2021 30.8496 15.9375 30.8496 20.3906V57.3486C30.8496 60.7764 30.6592 63.8379 30.2783 66.5332C29.8975 69.2285 29.1797 71.5137 28.125 73.3887C27.0996 75.2637 25.6055 76.6992 23.6426 77.6953C21.6797 78.6621 19.1162 79.1455 15.9521 79.1455ZM15.8643 70.4443C16.7139 70.4443 17.4609 70.3271 18.1055 70.0928C18.75 69.8291 19.2773 69.2871 19.6875 68.4668C20.0977 67.6172 20.4053 66.3281 20.6104 64.5996C20.8154 62.8711 20.918 60.5273 20.918 57.5684V19.9072C20.918 16.4209 20.7129 13.9014 20.3027 12.3486C19.8926 10.7666 19.3066 9.77051 18.5449 9.36035C17.7832 8.9209 16.8896 8.70117 15.8643 8.70117C14.8682 8.70117 13.9746 8.90625 13.1836 9.31641C12.4219 9.69727 11.8066 10.6787 11.3379 12.2607C10.8984 13.8135 10.6787 16.3477 10.6787 19.8633V57.5684C10.6787 60.5566 10.7666 62.915 10.9424 64.6436C11.1475 66.3428 11.4697 67.6172 11.9092 68.4668C12.3486 69.2871 12.8906 69.8291 13.5352 70.0928C14.1797 70.3271 14.9561 70.4443 15.8643 70.4443Z" fill="#1D1D1B"/>
</svg>
