<svg width="55" height="55" viewBox="0 0 55 55" xmlns="http://www.w3.org/2000/svg"><path d="M5.11465 10.8918L17.3525 23.1295H0V31.2803H17.3525L23.2618 25.4118V17.2202L11.0239 4.98276L5.11465 10.8918Z M23.1623 25.3708L37.2288 23.1454L49.4664 10.9077L43.5571 4.9984L31.3195 17.2361V0H23.1684L23.1623 25.3708Z M5.0276 43.5138L10.9369 49.4268L23.1748 37.1824V54.4274H31.3256V37.1826L23.1623 25.3708L5.0276 43.5138Z M23.119 29.0004L43.5151 49.3891L49.4268 43.4799L37.185 31.242H54.4267V23.0911H25.952C22.1203 23.8202 22.182 26.7752 23.119 29.0004Z" fill='currentColor'/></svg>