<svg width="500" height="500" viewBox="0 0 500 500" xmlns="http://www.w3.org/2000/svg"><path d="M484 11.3L424.7 70.6C436.4 80.2 440.8 96.1 435.6 110.3C430.4 124.5 416.9 134 401.8 133.9C391.3 133.9 381.5 129.5 374.8 121.5L374.3 120.8C362.6 106.6 363.6 85.8 376.6 72.8C389.6 59.8 410.4 58.8 424.6 70.5L484 11.2C475.5 4 464.7 0 453.6 0H291.1C278.8 0 267.1 4.8 258.4 13.5L148.8 123L13.7 258.1C4.9 266.8 0 278.7 0 291.1C0 303.4 4.9 315.2 13.7 323.8L176.2 486.3C184.9 495 196.6 500 208.9 500C221.3 500 233.1 495 241.9 486.3L486.2 241.9C495 233.3 500 221.5 499.9 209.2V46.5C499.9 33 494 20.2 483.8 11.3H484ZM262.2 352.1C229.9 352.1 201.1 337 182.2 313.2C167.5 294.7 158.7 271 158.7 245.1C158.7 219.2 171.5 185.8 191.9 166.3L175.8 150.1L192 166.2C210.4 148.6 235.1 137.9 262.2 137.9C287.4 137.9 311.6 147.4 330.2 164.5L330.6 164.9L309.4 186.4L300.2 195.9C289.6 186.8 276.1 181.8 262.1 181.8C228.8 183 202 209.7 200.9 243C199.7 278 227.1 307.3 262.1 308.5C290.8 308.5 312.4 293.4 317.6 267.1H262.1V225.7H358.6C360 232.1 360.8 238.6 360.9 245C360.9 313.1 313.9 352.1 262.1 352.1H262.2Z" fill='currentColor'/></svg>