<svg width="216" height="72" viewBox="0 0 216 72" xmlns="http://www.w3.org/2000/svg"><path d="M102.07 22.2C102.07 22.2 102.07 49.95 102.07 50.91C102.07 53.45 100.02 55.51 97.47 55.51H87.5C84.96 55.51 82.9 53.45 82.9 50.91C82.9 49.95 82.9 22.2 82.9 22.2H65.74V52.34C65.74 64.66 73.62 71.15 85.27 71.15H99.7C111.35 71.15 119.23 64.66 119.23 52.34V22.2H102.07Z M198.85 22.2C198.85 22.2 198.85 49.95 198.85 50.91C198.85 53.45 196.8 55.51 194.25 55.51H184.27C181.73 55.51 179.67 53.45 179.67 50.91C179.67 49.95 179.67 22.2 179.67 22.2H162.51V52.34C162.51 64.66 170.39 71.15 182.04 71.15H196.46C208.11 71.15 215.99 64.66 215.99 52.34V22.2H198.85Z M33.95 22.2C33.95 22.2 25.01 22.2 22.95 22.2C19.09 22.2 17.15 23.24 17.15 23.24V0H0V71.15H17.15V42.44C17.15 39.9 19.21 37.84 21.75 37.84H31.73C34.27 37.84 36.32 39.9 36.32 42.44V71.15H53.48V40.21C53.48 27.21 44.81 22.2 33.95 22.2Z M149.46 0H132.3V71.15H149.46V0Z" fill='currentColor'/></svg>