<svg xmlns="http://www.w3.org/2000/svg" width="256" height="256" viewBox="0 0 128 128" preserveAspectRatio="xMidYMid meet">
<path d="M47.7849 79.5106L48.6416 96.9379C49.1539 106.524 51.7331 109.312 57.7392 109.312H60.4861V125H50.8718C40.2286 125 32.6722 118.898 31.8155 105.654L30.442 82.2993C29.9253 74.2829 28.2118 71.8439 21 71.8439V56.1607C28.2118 56.1607 29.9253 53.7217 30.442 45.7053L31.8155 22.3508C32.6722 9.10668 40.224 3.0046 50.8718 3.0046H60.4861V18.6924H57.7392C51.7285 18.6924 49.1539 21.4811 48.6416 31.0668L47.7849 48.494C47.4404 54.9412 45.3825 61.7382 36.6249 64.0069C45.3825 66.271 47.4404 73.068 47.7849 79.5198V79.5106Z" fill="#AAFF32" style="fill:#AAFF32;fill:color(display-p3 0.6667 1.0000 0.1961);fill-opacity:1;"/>
<path d="M81.2151 48.4894L80.3583 31.0622C79.8416 21.4765 77.2669 18.6878 71.2608 18.6878H68.5139V3H78.1282C88.7714 3 96.3277 9.10207 97.1845 22.3462L98.558 45.7007C99.0747 53.7171 100.793 56.1561 108 56.1561V71.8393C100.793 71.8393 99.0747 74.2783 98.558 82.2947L97.1845 105.649C96.3277 118.893 88.7714 124.995 78.1282 124.995H68.5139V109.308H71.2608C77.2714 109.308 79.8461 106.519 80.3583 96.9332L81.2151 79.506C81.5596 73.0588 83.6175 66.2618 92.3705 63.9931C83.613 61.729 81.555 54.932 81.2151 48.4802V48.4894Z" fill="#AAFF32" style="fill:#AAFF32;fill:color(display-p3 0.6667 1.0000 0.1961);fill-opacity:1;"/>

</svg>