<svg width="12" height="14" viewBox="0 0 12 14" xmlns="http://www.w3.org/2000/svg"><path d="M5.68652 13.4233L0.530273 8.56006C0.413086 8.47217 0.383789 8.32568 0.383789 8.2085C0.383789 8.09131 0.413086 7.97412 0.500977 7.88623C0.676758 7.68115 0.969727 7.68115 1.14551 7.85693L5.54004 11.9585L5.54004 0.913574C5.54004 0.649902 5.74512 0.444824 5.97949 0.444824C6.21387 0.444824 6.47754 0.649902 6.47754 0.913574L6.47754 11.9585L10.8428 7.85693C11.0186 7.68115 11.3115 7.68115 11.4873 7.88623C11.6631 8.09131 11.6631 8.38428 11.458 8.56006L6.30176 13.4233C6.12598 13.5991 5.8623 13.5991 5.68652 13.4233Z"/></svg>