<svg width="26" height="20" viewBox="0 0 26 20" xmlns="http://www.w3.org/2000/svg"><path d="M16.6966 0.125874L25.8785 9.69231C26.0405 9.86014 26.0405 10.1399 25.8785 10.3077L16.6966 19.8741C16.4806 20.042 16.2105 20.042 16.0485 19.8741C15.8864 19.7063 15.8864 19.3706 16.0485 19.2028L24.5282 10.4755L0.432088 10.4755C0.162033 10.4755 1.2227e-08 10.2517 0 9.97203C-9.78157e-09 9.74825 0.162033 9.52448 0.432088 9.52448L24.5282 9.52448L16.0485 0.797203C15.8864 0.573427 15.8864 0.293706 16.0485 0.125874C16.2105 -0.041958 16.4806 -0.041958 16.6966 0.125874Z"/></svg>