<svg width="14" height="16" viewBox="0 0 14 16" xmlns="http://www.w3.org/2000/svg">
<path d="M6.46875 0.5C6.46875 0.25 6.71875 0 6.96875 0C7.25 0 7.5 0.25 7.5 0.5V1.03125C10 1.28125 12 3.40625 12 6V6.9375C12 8.28125 12.5312 9.59375 13.5 10.5625L13.5938 10.6562C13.8438 10.9062 14 11.25 14 11.625C14 12.4062 13.375 13 12.5938 13H1.375C0.59375 13 0 12.4062 0 11.625C0 11.25 0.125 10.9062 0.375 10.6562L0.46875 10.5625C1.4375 9.59375 2 8.28125 2 6.9375V6C2 3.40625 3.96875 1.28125 6.5 1.03125L6.46875 0.5ZM6.96875 2C4.78125 2 2.96875 3.8125 2.96875 6V6.9375C2.96875 8.5625 2.34375 10.125 1.1875 11.2812L1.09375 11.3438C1.03125 11.4375 0.96875 11.5312 0.96875 11.625C0.96875 11.8438 1.15625 12 1.375 12H12.5938C12.8125 12 13 11.8438 13 11.625C13 11.5312 12.9375 11.4375 12.875 11.3438L12.7812 11.2812C11.625 10.125 11 8.5625 11 6.9375V6C11 3.8125 9.1875 2 6.96875 2ZM6.96875 15C7.40625 15 7.78125 14.75 7.9375 14.3438C8.03125 14.0938 8.3125 13.9375 8.5625 14.0312C8.8125 14.125 8.96875 14.4062 8.875 14.6875C8.59375 15.4688 7.84375 16 6.96875 16C6.125 16 5.375 15.4688 5.09375 14.6875C5 14.4062 5.15625 14.125 5.40625 14.0312C5.65625 13.9375 5.9375 14.0938 6.03125 14.3438C6.1875 14.75 6.5625 15 6.96875 15Z" fill="currentColor"/>
</svg>
