<svg width="30" height="36" viewBox="0 0 30 36" xmlns="http://www.w3.org/2000/svg"><path d="M14.0625 28.9375L2.8125 17.6875C2.34375 17.2188 2.34375 16.3594 2.8125 15.8906C3.28125 15.4219 4.14062 15.4219 4.60938 15.8906L13.75 25.0312V1.75C13.75 1.125 14.2969 0.5 15 0.5C15.625 0.5 16.25 1.125 16.25 1.75V25.0312L25.3125 15.8906C25.7812 15.4219 26.6406 15.4219 27.1094 15.8906C27.5781 16.3594 27.5781 17.2188 27.1094 17.6875L15.8594 28.9375C15.625 29.1719 15.3125 29.25 15 29.25C14.6094 29.25 14.2969 29.1719 14.0625 28.9375ZM28.75 33C29.375 33 30 33.625 30 34.25C30 34.9531 29.375 35.5 28.75 35.5H1.25C0.546875 35.5 0 34.9531 0 34.25C0 33.625 0.546875 33 1.25 33H28.75Z"/></svg>