<svg width="25" height="19" viewBox="0 0 25 19" xmlns="http://www.w3.org/2000/svg"><path d="M0 3.125C0 1.41602 1.36719 0 3.125 0H21.875C23.584 0 25 1.41602 25 3.125V15.625C25 17.3828 23.584 18.75 21.875 18.75H3.125C1.36719 18.75 0 17.3828 0 15.625V3.125ZM1.5625 3.125V5.07812L11.084 12.1094C11.9141 12.6953 13.0371 12.6953 13.8672 12.1094L23.4375 5.07812V3.125C23.4375 2.29492 22.7051 1.5625 21.875 1.5625H3.07617C2.24609 1.5625 1.51367 2.29492 1.51367 3.125H1.5625ZM1.5625 7.03125V15.625C1.5625 16.5039 2.24609 17.1875 3.125 17.1875H21.875C22.7051 17.1875 23.4375 16.5039 23.4375 15.625V7.03125L14.7949 13.3789C13.4277 14.3555 11.5234 14.3555 10.1562 13.3789L1.5625 7.03125Z"/></svg>