<svg width="20" height="20" viewBox="0 0 20 20" xmlns="http://www.w3.org/2000/svg"><path d="M18 7V2H13C12.4477 2 12 1.55228 12 1C12 0.447715 12.4477 0 13 0H19L19.1025 0.00488281C19.6067 0.0562144 20 0.482323 20 1V7C20 7.55228 19.5523 8 19 8C18.4477 8 18 7.55228 18 7Z M18.2929 0.292893C18.6834 -0.0976311 19.3164 -0.0976311 19.707 0.292893C20.0975 0.683418 20.0975 1.31643 19.707 1.70696L8.70696 12.707C8.31643 13.0975 7.68342 13.0975 7.29289 12.707C6.90237 12.3164 6.90237 11.6834 7.29289 11.2929L18.2929 0.292893Z M0 17V6C0 5.20435 0.316297 4.44152 0.878906 3.87891C1.44152 3.3163 2.20435 3 3 3H9C9.55228 3 10 3.44772 10 4C10 4.55228 9.55228 5 9 5H3C2.73478 5 2.48051 5.10543 2.29297 5.29297C2.10543 5.48051 2 5.73478 2 6V17C2 17.2652 2.10543 17.5195 2.29297 17.707C2.48051 17.8946 2.73478 18 3 18H14C14.2652 18 14.5195 17.8946 14.707 17.707C14.8946 17.5195 15 17.2652 15 17V11C15 10.4477 15.4477 10 16 10C16.5523 10 17 10.4477 17 11V17C17 17.7957 16.6837 18.5585 16.1211 19.1211C15.5585 19.6837 14.7957 20 14 20H3C2.20435 20 1.44152 19.6837 0.878906 19.1211C0.316297 18.5585 0 17.7956 0 17Z" fill="currentColor"/></svg>