<svg width="37" height="27" viewBox="0 0 37 27" xmlns="http://www.w3.org/2000/svg"><path d="M10.1367 6.48438C13.0078 3.55469 17.7539 3.55469 20.6836 6.48438C23.4961 9.23828 23.6133 13.6914 21.0938 16.6797L20.7422 17.0312C20.3906 17.4414 19.8047 17.5 19.4531 17.1484C19.043 16.7969 18.9844 16.2109 19.3359 15.8008L19.6289 15.4492C21.5625 13.2227 21.4453 9.88281 19.3945 7.83203C17.168 5.60547 13.6523 5.60547 11.4258 7.83203L4.16016 15.0977C1.93359 17.3242 1.93359 20.8398 4.16016 23.0664C6.32812 25.2344 9.90234 25.2344 12.0703 23.0664L13.418 21.7188C13.7695 21.3672 14.3555 21.3672 14.7656 21.7188C15.1172 22.0703 15.1172 22.7148 14.7656 23.0664L13.418 24.3555C10.4883 27.2852 5.74219 27.2852 2.8125 24.3555C-0.117188 21.4258 -0.117188 16.6797 2.8125 13.75L10.1367 6.48438ZM27.3047 21.0742C24.4336 24.0039 19.6875 24.0039 16.7578 21.0742C13.9453 18.3203 13.8281 13.8672 16.3477 10.8789L16.6992 10.5273C17.0508 10.1172 17.6367 10.0586 17.9883 10.4102C18.3984 10.7617 18.457 11.3477 18.1055 11.7578L17.8125 12.1094C15.8789 14.3359 15.9961 17.6758 18.0469 19.7266C20.2734 21.9531 23.7891 21.9531 26.0156 19.7266L33.2812 12.4609C35.5078 10.2344 35.5078 6.71875 33.2812 4.49219C31.1133 2.32422 27.5391 2.32422 25.3711 4.49219L24.0234 5.83984C23.6719 6.19141 23.0859 6.19141 22.6758 5.83984C22.3242 5.42969 22.3242 4.84375 22.6758 4.49219L24.0234 3.14453C26.9531 0.214844 31.6992 0.214844 34.6289 3.14453C37.5586 6.07422 37.5586 10.8203 34.6289 13.75L27.3047 21.0742Z"/></svg>