<svg width="25" height="26" viewBox="0 0 25 26" xmlns="http://www.w3.org/2000/svg"><path d="M24.7559 23.8066C25.0488 24.0996 25.0488 24.6367 24.7559 24.9297C24.6094 25.0762 24.4141 25.125 24.2188 25.125C23.9746 25.125 23.7793 25.0762 23.584 24.9297L16.6992 17.9961C14.8926 19.5586 12.5977 20.4375 10.1074 20.4375C4.54102 20.4375 0 15.8965 0 10.2812C0 4.71484 4.49219 0.125 10.1074 0.125C15.6738 0.125 20.2637 4.71484 20.2637 10.2812C20.2637 12.8203 19.3848 15.1152 17.8223 16.9219L24.7559 23.8066ZM10.1562 18.875C14.8926 18.875 18.75 15.0664 18.75 10.2812C18.75 5.54492 14.8926 1.6875 10.1562 1.6875C5.37109 1.6875 1.5625 5.54492 1.5625 10.2812C1.5625 15.0176 5.37109 18.875 10.1562 18.875Z"/></svg>