<svg width="532" height="548" viewBox="0 0 532 548" fill="none" xmlns="http://www.w3.org/2000/svg">
<path d="M176 48H64C55.2 48 48 55.2 48 64V448C48 456.8 55.2 464 64 464H144V512H64C28.7 512 0 483.3 0 448V64C0 28.7 28.7 0 64 0H197.5C214.5 0 230.8 6.7 242.8 18.7L365.3 141.3C377.3 153.3 384 169.6 384 186.6V336.1H336V208.1H248C208.2 208.1 176 175.9 176 136.1V48ZM316.1 160L224 67.9V136C224 149.3 234.7 160 248 160H316.1ZM208 380H240C273.1 380 300 406.9 300 440C300 473.1 273.1 500 240 500H228V528C228 539 219 548 208 548C197 548 188 539 188 528V400C188 389 197 380 208 380ZM240 460C251 460 260 451 260 440C260 429 251 420 240 420H228V460H240ZM336 380H368C396.7 380 420 403.3 420 432V496C420 524.7 396.7 548 368 548H336C325 548 316 539 316 528V400C316 389 325 380 336 380ZM368 508C374.6 508 380 502.6 380 496V432C380 425.4 374.6 420 368 420H356V508H368ZM444 400C444 389 453 380 464 380H512C523 380 532 389 532 400C532 411 523 420 512 420H484V444H512C523 444 532 453 532 464C532 475 523 484 512 484H484V528C484 539 475 548 464 548C453 548 444 539 444 528V400Z" fill="black"/>
</svg>
