<svg width="25" height="25" viewBox="0 0 25 25" xmlns="http://www.w3.org/2000/svg"><path d="M23.6328 16.123C24.6094 16.5625 25.1465 17.6367 24.9023 18.6621L23.877 23.252C23.6328 24.2773 22.7539 24.9609 21.6797 24.9609C9.7168 24.9609 0 15.2441 0 3.28125C0 2.20703 0.683594 1.32813 1.70898 1.13281L6.29883 0.0585961C7.32422 -0.185544 8.39844 0.351565 8.83789 1.32813L10.9375 6.3086C11.3281 7.1875 11.084 8.26172 10.3516 8.89649L8.34961 10.5078C9.76562 13.0469 11.9141 15.1953 14.4531 16.6113L16.1133 14.6582C16.6992 13.877 17.7734 13.6328 18.6523 13.9746L23.6328 16.123ZM22.3145 22.9102L23.3887 18.3203C23.4863 17.9785 23.291 17.6855 22.998 17.5391L18.0664 15.4395C17.7734 15.3418 17.4805 15.3906 17.2852 15.6348L15.2832 18.0762C15.0391 18.3691 14.6484 18.4668 14.3555 18.2715C11.0352 16.6602 8.30078 13.9258 6.68945 10.6543C6.49414 10.3125 6.5918 9.92188 6.88477 9.67774L9.32617 7.67578C9.57031 7.48047 9.61914 7.1875 9.52148 6.89453L7.42188 1.96289C7.27539 1.71875 7.03125 1.52344 6.78711 1.52344C6.73828 1.52344 6.68945 1.57227 6.64062 1.57227L2.05078 2.64649C1.75781 2.69531 1.5625 2.93946 1.5625 3.28125C1.5625 14.3652 10.5957 23.4473 21.6797 23.4473C22.0215 23.4473 22.2656 23.2031 22.3145 22.9102Z"/></svg>