<svg width="15" height="18" viewBox="0 0 15 18" xmlns="http://www.w3.org/2000/svg"><path d="M0.9375 0.510935C1.52344 0.159373 2.26562 0.159373 2.85156 0.549998L14.1016 7.38593C14.6484 7.7375 15 8.3625 15 8.9875C15 9.65156 14.6484 10.2766 14.1016 10.5891L2.85156 17.4641C2.26562 17.8156 1.52344 17.8547 0.9375 17.5031C0.351562 17.1906 0 16.5656 0 15.8625V2.1125C0 1.44844 0.351562 0.823435 0.9375 0.510935ZM2.1875 1.60469C1.99219 1.4875 1.75781 1.4875 1.5625 1.60469C1.36719 1.68281 1.25 1.91719 1.25 2.1125V15.8625C1.25 16.0969 1.36719 16.3312 1.5625 16.4094C1.75781 16.5266 1.99219 16.5266 2.1875 16.4094L13.4375 9.53437C13.6328 9.41718 13.75 9.22187 13.75 8.9875C13.75 8.79218 13.6328 8.59687 13.4375 8.47968L2.1875 1.60469Z"/></svg>