<svg width="16" height="18" viewBox="0 0 16 18" xmlns="http://www.w3.org/2000/svg"><path d="M15.0312 2.8125C15.4883 2.8125 15.875 3.19922 15.875 3.65625C15.875 4.14844 15.4883 4.5 15.0312 4.5H14.6094L13.7656 15.9258C13.6602 17.1211 12.7109 18 11.5156 18H4.44922C3.25391 18 2.30469 17.1211 2.19922 15.9258L1.35547 4.5H0.96875C0.476562 4.5 0.125 4.14844 0.125 3.65625C0.125 3.19922 0.476562 2.8125 0.96875 2.8125H3.39453L4.69531 0.878906C5.04688 0.351562 5.67969 0 6.34766 0H9.61719C10.2852 0 10.918 0.351562 11.2695 0.878906L12.5703 2.8125H15.0312ZM6.34766 1.6875C6.24219 1.6875 6.13672 1.75781 6.10156 1.82812L5.43359 2.8125H10.5312L9.86328 1.82812C9.82812 1.75781 9.72266 1.6875 9.61719 1.6875H6.34766ZM12.9219 4.5H3.04297L3.88672 15.8203C3.92188 16.1016 4.16797 16.3125 4.44922 16.3125H11.5156C11.7969 16.3125 12.043 16.1016 12.0781 15.8203L12.9219 4.5Z" fill='currentColor'/></svg>